<svg xmlns="http://www.w3.org/2000/svg" width="12.113" height="12.113" viewBox="0 0 12.113 12.113">
  <path id="phone-call_1_" data-name="phone-call(1)" d="M12.724,9.722c-.033-.026-2.437-1.759-3.1-1.634-.315.056-.5.271-.856.7-.058.069-.2.236-.306.354A5.054,5.054,0,0,1,7.8,8.87,5.532,5.532,0,0,1,5.245,6.318a5.03,5.03,0,0,1-.271-.667c.119-.109.285-.249.356-.308.428-.359.643-.539.7-.855.114-.654-1.617-3.074-1.635-3.1A.924.924,0,0,0,3.705,1C3,1,1,3.6,1,4.037c0,.025.037,2.611,3.225,5.855,3.24,3.185,5.826,3.222,5.851,3.222.438,0,3.037-2,3.037-2.705a.922.922,0,0,0-.39-.686Z" transform="translate(-1 -1)" fill="#0065af"/>
</svg>
